<?xml version="1.0" encoding="UTF-8" standalone="no"?>
<!-- Created with Inkscape (http://www.inkscape.org/) -->

<svg
   width="1000"
   height="1000"
   viewBox="0 0 264.5833 264.5833"
   version="1.1"
   id="svg1"
   sodipodi:docname="erdemplus.svg"
   inkscape:version="1.4.3 (0d15f75, 2025-12-25)"
   xmlns:inkscape="http://www.inkscape.org/namespaces/inkscape"
   xmlns:sodipodi="http://sodipodi.sourceforge.net/DTD/sodipodi-0.dtd"
   xmlns="http://www.w3.org/2000/svg"
   xmlns:svg="http://www.w3.org/2000/svg">
  <sodipodi:namedview
     id="namedview1"
     pagecolor="#ffffff"
     bordercolor="#000000"
     borderopacity="0.25"
     inkscape:showpageshadow="2"
     inkscape:pageopacity="0.0"
     inkscape:pagecheckerboard="0"
     inkscape:deskcolor="#d1d1d1"
     inkscape:document-units="mm"
     showgrid="true"
     inkscape:zoom="0.30561641"
     inkscape:cx="-256.85794"
     inkscape:cy="845.83155"
     inkscape:window-width="1345"
     inkscape:window-height="916"
     inkscape:window-x="0"
     inkscape:window-y="38"
     inkscape:window-maximized="0"
     inkscape:current-layer="g2">
    <inkscape:grid
       id="grid1"
       units="mm"
       originx="0"
       originy="0"
       spacingx="0.99999987"
       spacingy="0.99999987"
       empcolor="#0099e5"
       empopacity="0.30196078"
       color="#0099e5"
       opacity="0.14901961"
       empspacing="5"
       enabled="true"
       visible="true" />
  </sodipodi:namedview>
  <defs
     id="defs1" />
  <g
     inkscape:label="Layer 1"
     inkscape:groupmode="layer"
     id="layer1">
    <g
       id="g2"
       transform="matrix(1.1333333,0,0,1.1333333,-19.227844,-18.912629)">
      <path
         d="m 58.693765,149.87899 v 58.53657 h 58.536555 l 0.29369,-26.33245 c 1.1557,-0.001 3.10655,-0.39814 4.12188,0.26124 0.8173,0.53074 1.1927,1.83759 1.84188,2.58119 1.553,1.77898 3.84143,2.67582 6.11853,2.59171 8.0771,-0.2983 9.56861,-12.03181 2.44137,-15.25408 -2.55129,-1.15345 -5.77159,-0.57949 -7.87963,1.31018 -0.86288,0.77348 -1.3737,2.15353 -2.31054,2.77249 -1.0494,0.6933 -3.13913,0.27207 -4.34164,0.27386 l -0.14901,-26.53639 -26.477978,-0.20432 c 0.0021,1.43342 -0.510254,4.36655 0.236228,5.60549 1.68859,2.80255 4.876348,3.46817 4.633901,7.63919 -0.484008,8.32691 -11.416713,10.00295 -14.363475,2.36289 -1.000911,-2.59507 -0.205756,-5.81191 1.620307,-7.78301 0.714356,-0.77111 1.900205,-1.26164 2.428138,-2.19394 0.730394,-1.28982 0.325144,-4.16124 0.322951,-5.63062 z"
         style="fill:#edaa3f;fill-opacity:1;stroke:none;stroke-width:0.189895"
         id="path1"
         sodipodi:nodetypes="ccccsssssscccssssscc" />
      <path
         d="m 150.15713,208.41556 h 58.53656 v -58.53657 l -26.47537,-0.16135 c -7.3e-4,-1.1557 -0.39617,-3.10679 0.26385,-4.12172 0.53127,-0.81696 1.83834,-1.19154 2.58237,-1.84025 1.77995,-1.55187 2.67823,-3.83973 2.59558,-6.11689 -0.2932,-8.07729 -12.02577,-9.57622 -15.25253,-2.45102 -1.15507,2.55056 -0.58315,5.77123 1.30518,7.88046 0.77294,0.86336 2.15267,1.37507 2.77102,2.3123 0.69264,1.04983 0.27009,3.1393 0.27113,4.34181 l -26.59779,0.15666 0.0841,26.47857 c 1.43342,-0.001 4.12242,0.48783 5.36183,-0.25787 2.80362,-1.68682 3.47126,-4.87416 7.64212,-4.62907 8.32659,0.48927 9.99571,11.42304 2.3538,14.36497 -2.5957,0.99927 -5.81204,0.20208 -7.78198,-1.62523 -0.77066,-0.71484 -1.26043,-1.901 -2.1924,-2.42952 -1.28937,-0.73121 -3.90954,-0.2499 -5.37892,-0.24864 z"
         style="fill:#e26735;fill-opacity:1;stroke:none;stroke-width:0.189895"
         id="path1-7"
         sodipodi:nodetypes="ccccsssssscccssssscc" />
      <path
         d="m 208.69369,116.86497 -0.0873,-58.449373 H 150.15715 L 150,85.000001 c -1.15571,0.0018 -3.10655,0.397548 -4.12189,-0.260849 -0.8173,-0.529957 -1.1927,-1.834853 -1.84188,-2.577357 -1.55301,-1.776325 -3.84144,-2.671827 -6.11855,-2.587855 -8.0771,0.297865 -9.56862,12.013915 -2.44137,15.231377 2.5513,1.15173 5.77161,0.578629 7.87965,-1.308221 0.86288,-0.772329 1.3737,-2.150329 2.31054,-2.768359 1.0494,-0.692276 3.13913,-0.271666 4.34165,-0.273458 l 0.149,26.496891 26.50305,-0.0394 c -0.002,-1.4313 0.48522,-4.1166 -0.26126,-5.35368 -1.68859,-2.79839 -4.87636,-3.46301 -4.63391,-7.62782 0.48401,-8.314555 11.41673,-9.988103 14.3635,-2.35941 1.0009,2.5912 0.20575,5.80325 -1.62031,7.77142 -0.71435,0.76996 -1.90021,1.25976 -2.42814,2.19067 -0.7304,1.2879 -0.24743,3.90387 -0.24524,5.37107 z"
         style="fill:#e26735;fill-opacity:1;stroke:none;stroke-width:0.189754"
         id="path1-0"
         sodipodi:nodetypes="ccccsssssscccssssscc" />
      <path
         d="m 117.23032,58.415636 -58.536551,-7.9e-5 -7.9e-5,58.536573 26.454593,0.10557 c -0.0016,1.1557 0.389158,3.10769 -0.273154,4.12111 -0.533107,0.81576 -1.841027,1.18738 -2.586512,1.83441 -1.783456,1.54786 -2.686903,3.83369 -2.60939,6.11102 0.274956,8.07793 12.004107,9.60335 15.246957,2.48545 1.160818,-2.54793 0.596175,-5.76989 -1.287386,-7.88338 -0.770983,-0.86511 -2.149553,-1.37992 -2.765793,-2.31854 -0.690271,-1.0514 -0.262995,-3.13991 -0.261313,-4.34242 l 26.536688,-0.0722 0.0374,-26.503023 c -1.43342,-0.002 -4.12131,-0.497144 -5.36238,0.245756 -2.80744,1.680478 -3.48226,4.866304 -7.65256,4.611798 -8.325467,-0.508113 -9.969895,-11.445619 -2.32135,-14.37028 2.59794,-0.993404 5.81248,-0.188952 7.77829,1.642803 0.76903,0.716578 1.25613,1.903841 2.1869,2.434467 1.2877,0.734125 3.90896,0.258728 5.37835,0.260785 z"
         style="fill:#edaa3f;fill-opacity:1;stroke:none;stroke-width:0.189895"
         id="path1-0-4"
         sodipodi:nodetypes="ccccsssssscccssssscc" />
    </g>
  </g>
</svg>
